<svg width="14" height="16" fill="none" xmlns="http://www.w3.org/2000/svg"><path fill-rule="evenodd" clip-rule="evenodd" d="M0 2.63v-.88C0 1.33.33 1 .75 1h3.5l.3-.58A.74.74 0 0 1 5.2 0h3.57c.29 0 .55.16.68.42l.29.58h3.5c.42 0 .75.33.75.75v.88c0 .2-.17.37-.38.37H.38A.38.38 0 0 1 0 2.62Zm13 1.75V14.5c0 .83-.67 1.5-1.5 1.5h-9A1.5 1.5 0 0 1 1 14.5V4.37c0-.2.17-.37.38-.37h11.25c.2 0 .37.17.37.38ZM4 6c.28 0 .5.22.5.5v7a.5.5 0 0 1-.5.5.5.5 0 0 1-.5-.5v-7c0-.28.23-.5.5-.5Zm3.5.5A.5.5 0 0 0 7 6a.5.5 0 0 0-.5.5v7c0 .28.22.5.5.5a.5.5 0 0 0 .5-.5v-7ZM10 6c.28 0 .5.22.5.5v7a.5.5 0 0 1-.5.5.5.5 0 0 1-.5-.5v-7c0-.28.22-.5.5-.5Z" fill="#C3CAD9"/></svg>